# xmcd
#
# Track frame offsets:
#	150
#	13955
#	27345
#	40848
#	57235
#	70807
#	84373
#	98313
#	112641
#	126040
#	138673
#	152788
#	164973
#	178480
#	193196
#	204934
#	220751
#	233500
#	248422
#	263420
#	277366
#	291633
#	306108
#	320542
#	333091
#
# Disc length: 4642 seconds
#
# Revision: 1
# Processed by: cddbd v1.5.2PL0 Copyright (c) Steve Scherf et al.
# Submitted via: audiograbber 1.83.01
#
DISCID=69122019
DTITLE=The Carter Family - Wildwood Flower CD02
DYEAR=2008
DGENRE=Country
TTITLE0=My Home's Across The Blue Ridge Mountains
TTITLE1=Are You Lonesome Tonight
TTITLE2=My Dixie Darling
TTITLE3=Motherless Children
TTITLE4=Give Me Your Love And I'll Give You Mine
TTITLE5=The Cannonball
TTITLE6=The Wayworn Traveller
TTITLE7=Where Silver Threads Are Gold Again
TTITLE8=There's No One Like Mother To Me
TTITLE9=Single Girl, Married Girl
TTITLE10=The Last Move For Me
TTITLE11=Jealous Hearted Me
TTITLE12=Carter's Blues
TTITLE13=In The Shadow Of Clinch Mountain
TTITLE14=Jimmy Brown The Newsboy
TTITLE15=When The Roses Bloom In Dixieland
TTITLE16=In The Valley Of Shenandoah
TTITLE17=No Telephone In Heaven
TTITLE18=Jim Blake's Message
TTITLE19=Chewing Gum
TTITLE20=The Broken Down Tramp
TTITLE21=Answer To A Weeping Willow
TTITLE22=You've Been A Friend To Me
TTITLE23=Lay My Head Beneath The Rose
TTITLE24=Never Let The Devil Get The Upper Hand
EXTD=
EXTT0=
EXTT1=
EXTT2=
EXTT3=
EXTT4=
EXTT5=
EXTT6=
EXTT7=
EXTT8=
EXTT9=
EXTT10=
EXTT11=
EXTT12=
EXTT13=
EXTT14=
EXTT15=
EXTT16=
EXTT17=
EXTT18=
EXTT19=
EXTT20=
EXTT21=
EXTT22=
EXTT23=
EXTT24=
PLAYORDER=
